<svg id="Calque_1" data-name="Calque 1" xmlns="http://www.w3.org/2000/svg" viewBox="0 0 40 40"><defs><style>.cls-1{fill:#cccad2;}</style></defs><title>icon-calendar</title><path class="cls-1" d="M0.86,40a0.84,0.84,0,0,1-.62-0.23A0.84,0.84,0,0,1,0,39.14v-35A0.75,0.75,0,0,1,.23,3.59,0.84,0.84,0,0,1,.86,3.36H7.5a0.89,0.89,0,0,1,.59.23,0.7,0.7,0,0,1,.27.55,0.78,0.78,0,0,1-.27.63A0.89,0.89,0,0,1,7.5,5H1.64V38.36H38.36V5H32.5a0.89,0.89,0,0,1-.59-0.23,0.78,0.78,0,0,1-.27-0.62,0.7,0.7,0,0,1,.27-0.55,0.89,0.89,0,0,1,.59-0.23h6.64a0.84,0.84,0,0,1,.63.23,0.75,0.75,0,0,1,.23.55v35a0.81,0.81,0,0,1-.86.86H0.86Zm0-26.64a0.78,0.78,0,0,1-.62-0.27,0.85,0.85,0,0,1,0-1.17,0.78,0.78,0,0,1,.63-0.27H39.14a0.78,0.78,0,0,1,.63.27,0.85,0.85,0,0,1,0,1.17,0.78,0.78,0,0,1-.62.27H0.86ZM4.14,20a0.75,0.75,0,0,1-.55-0.23,0.84,0.84,0,0,1-.23-0.62,0.8,0.8,0,0,1,.78-0.78H35.86a0.8,0.8,0,0,1,.78.78,0.84,0.84,0,0,1-.23.63,0.75,0.75,0,0,1-.55.23H4.14Zm0,6.64a0.8,0.8,0,0,1-.78-0.78,0.84,0.84,0,0,1,.23-0.62A0.75,0.75,0,0,1,4.14,25H35.86a0.75,0.75,0,0,1,.55.23,0.84,0.84,0,0,1,.23.63,0.8,0.8,0,0,1-.78.78H4.14Zm0,6.72a0.7,0.7,0,0,1-.55-0.27,0.85,0.85,0,0,1,0-1.17,0.7,0.7,0,0,1,.55-0.27H35.86a0.7,0.7,0,0,1,.55.27,0.85,0.85,0,0,1,0,1.17,0.7,0.7,0,0,1-.55.27H4.14Zm3.36-25A0.95,0.95,0,0,1,6.64,7.5V0.86A0.78,0.78,0,0,1,6.91.23,0.89,0.89,0,0,1,7.5,0h5a0.89,0.89,0,0,1,.59.23,0.78,0.78,0,0,1,.27.63V7.5a0.95,0.95,0,0,1-.86.86h-5Zm4.14-1.72v-5H8.36v5h3.28ZM10.23,36.41A0.75,0.75,0,0,1,10,35.86v-20A0.81,0.81,0,0,1,10.86,15a0.75,0.75,0,0,1,.55.23,0.84,0.84,0,0,1,.23.63v20a0.8,0.8,0,0,1-.78.78A0.84,0.84,0,0,1,10.23,36.41ZM12.5,5a0.89,0.89,0,0,1-.59-0.23,0.78,0.78,0,0,1-.27-0.62,0.7,0.7,0,0,1,.27-0.55,0.89,0.89,0,0,1,.59-0.23h15a0.89,0.89,0,0,1,.59.23,0.7,0.7,0,0,1,.27.55,0.78,0.78,0,0,1-.27.63A0.89,0.89,0,0,1,27.5,5h-15Zm6.91,31.41a0.7,0.7,0,0,1-.27-0.55v-20a0.78,0.78,0,0,1,.27-0.62,0.85,0.85,0,0,1,1.17,0,0.78,0.78,0,0,1,.27.63v20a0.7,0.7,0,0,1-.27.55A0.85,0.85,0,0,1,19.41,36.41Zm8.09-28a0.95,0.95,0,0,1-.86-0.86V0.86A0.78,0.78,0,0,1,26.91.23,0.89,0.89,0,0,1,27.5,0h5a0.89,0.89,0,0,1,.59.23,0.78,0.78,0,0,1,.27.63V7.5a0.95,0.95,0,0,1-.86.86h-5Zm4.14-1.72v-5H28.36v5h3.28Zm-3,29.77a0.75,0.75,0,0,1-.23-0.55v-20a0.84,0.84,0,0,1,.23-0.62A0.75,0.75,0,0,1,29.14,15a0.81,0.81,0,0,1,.86.86v20a0.75,0.75,0,0,1-.23.55,0.84,0.84,0,0,1-.62.23A0.75,0.75,0,0,1,28.59,36.41Z"/></svg>