<?xml version="1.0" encoding="utf-8"?>
<!-- Generator: Adobe Illustrator 19.1.0, SVG Export Plug-In . SVG Version: 6.00 Build 0)  -->
<svg version="1.1" id="Calque_1" xmlns="http://www.w3.org/2000/svg" xmlns:xlink="http://www.w3.org/1999/xlink" x="0px" y="0px"
	 viewBox="206 -206 512 512" style="enable-background:new 206 -206 512 512;" xml:space="preserve">
<path id="instagram-9-icon" d="M418.6,50c0-24.6,19.9-44.4,44.4-44.4c24.5,0,44.5,19.9,44.5,44.4c0,24.5-19.9,44.5-44.5,44.5
	C438.5,94.4,418.6,74.5,418.6,50z M534.1,50c0,39.3-31.8,71.1-71.1,71.1c-39.3,0-71.1-31.8-71.1-71.1c0-6.1,0.9-12.1,2.3-17.8h-20.1
	V130c0,4.9,4,8.9,8.9,8.9h160c4.9,0,8.9-4,8.9-8.9V32.2h-20.1C533.2,37.9,534.1,43.8,534.1,50z M543-38.9h-26.7
	c-4.9,0-8.9,4-8.9,8.9v26.7c0,4.9,4,8.9,8.9,8.9H543c4.9,0,8.9-4,8.9-8.9V-30C551.9-34.9,547.9-38.9,543-38.9z M668,50
	c0,113.8-92.2,206-206,206S256,163.8,256,50s92.2-206,206-206S668-63.8,668,50z M578.6-38.9c0-14.7-11.9-26.7-26.7-26.7H374.1
	c-14.7,0-26.7,11.9-26.7,26.7v177.8c0,14.7,11.9,26.7,26.7,26.7h177.8c14.7,0,26.7-11.9,26.7-26.7L578.6-38.9L578.6-38.9z" fill="#305e83"/>
</svg>
