<?xml version="1.0" encoding="utf-8"?>
<!-- Svg Vector Icons : http://www.onlinewebfonts.com/icon -->
<!DOCTYPE svg PUBLIC "-//W3C//DTD SVG 1.1//EN" "http://www.w3.org/Graphics/SVG/1.1/DTD/svg11.dtd">
<svg version="1.1" xmlns="http://www.w3.org/2000/svg" xmlns:xlink="http://www.w3.org/1999/xlink" x="0px" y="0px" viewBox="0 0 1000 1000" enable-background="new 0 0 1000 1000" xml:space="preserve">
<metadata> Svg Vector Icons : http://www.onlinewebfonts.com/icon </metadata>
<g><g transform="translate(0.000000,512.000000) scale(0.100000,-0.100000)"><path d="M2497,5002.5c-65.2-26.8-122.7-113.1-122.7-187.9c0-86.3-138,51.7,2568.8-2563C6150.8,1086.1,7138,125.6,7138,116c0-9.6-1065.8-1048.6-2369.4-2308.1C3465.1-3451.5,2393.5-4496.3,2387.7-4515.4c-26.8-69-13.4-143.8,40.2-203.2c44.1-49.8,69-61.3,136.1-61.3c70.9,0,93.9,11.5,170.6,86.3C3328.9-4124.4,7417.9-177.3,7508-87.2c107.3,109.3,118.8,128.4,118.8,201.3c0,74.7-9.6,92-138,220.4c-519.5,519.5-4819.4,4654.5-4857.7,4669.8C2573.7,5025.5,2550.7,5025.5,2497,5002.5z"/></g></g>
</svg>