<?xml version="1.0" encoding="utf-8"?>
<!-- Generator: Adobe Illustrator 19.1.0, SVG Export Plug-In . SVG Version: 6.00 Build 0)  -->
<svg version="1.1" id="Calque_1" xmlns="http://www.w3.org/2000/svg" xmlns:xlink="http://www.w3.org/1999/xlink" x="0px" y="0px"
	 viewBox="206 -206 512 512" style="enable-background:new 206 -206 512 512;" xml:space="preserve">
<path id="twitter-4-icon" d="M462-156c-113.8,0-206,92.2-206,206s92.2,206,206,206s206-92.2,206-206S575.8-156,462-156z M565.6,14.5
	c3,67.2-47.1,142.1-135.8,142.1c-27,0-52.1-7.9-73.2-21.5c25.3,3,50.6-4,70.7-19.8c-20.9-0.4-38.6-14.2-44.6-33.2
	c7.5,1.4,14.9,1,21.6-0.8c-23-4.6-38.8-25.3-38.3-47.5c6.4,3.6,13.8,5.7,21.6,6c-21.3-14.2-27.3-42.3-14.8-63.8
	C396.3,5,431.5,24,471.2,26c-7-29.9,15.7-58.7,46.5-58.7c13.7,0,26.2,5.8,34.9,15.1c10.9-2.1,21.1-6.1,30.3-11.6
	C579.4-18,571.9-8.6,562-2.7c9.7-1.2,18.9-3.7,27.4-7.5C583-0.6,574.9,7.8,565.6,14.5z" fill="#479cd6"/>
</svg>
