<?xml version="1.0" encoding="utf-8"?>
<!-- Generator: Adobe Illustrator 19.1.0, SVG Export Plug-In . SVG Version: 6.00 Build 0)  -->
<svg version="1.1" id="Calque_1" xmlns="http://www.w3.org/2000/svg" xmlns:xlink="http://www.w3.org/1999/xlink" x="0px" y="0px"
	 viewBox="206 -206 512 512" style="enable-background:new 206 -206 512 512;" xml:space="preserve">
<path id="youtube-4-icon" d="M493.6,80.9c-4.7,0-8.7,3-11.6,6.6V56.8h-13.2v95.4H482v-5.4c3.6,4.5,7.6,6.3,12.4,6.3
	c8.7,0,12-6.8,12-15.5v-39C506.4,89,503.2,80.9,493.6,80.9z M492.9,135.7c0,2.2-0.4,3.9-1.1,4.9c-1.4,1.9-4.6,1.8-6.7,0.7
	c-1-0.5-2-1.3-3.1-2.5V95c0.9-1,1.8-1.7,2.7-2.1c2.3-1.2,5.2-0.9,6.8,1.2c0.9,1.2,1.4,3,1.4,5.4L492.9,135.7L492.9,135.7z
	 M448.9-2.7V-37c0-4,1.9-7,5.7-7c4.2,0,6,2.9,6,7v34.4c0,4-2.1,7-5.7,7C451,4.3,448.9,1.2,448.9-2.7z M442.9,81.8H456v70.4h-13.1
	v-7.8c-2.4,2.9-4.9,5-7.5,6.5c-7.1,4-16.7,4-16.7-10.3V81.8h13.1v53.9c0,2.8,0.7,4.7,3.5,4.7c2.5,0,6.1-3.3,7.7-5.3V81.8z
	 M418.9,70.6h-15.2v81.5h-14.7V70.6h-15.2V56.8h45.2L418.9,70.6L418.9,70.6z M536.1,80.1c-11.8,0-19.9,8.5-19.9,20.7v31.6
	c0,12.7,6.4,21.8,18.9,21.8c13.8,0,19.6-8.2,19.6-21.8V127h-13.5v4.9c0,6.1-0.3,9.8-5.8,9.8c-5.3,0-5.7-4.6-5.7-9.8v-13.3h25v-17.9
	C554.7,88,548.7,80.1,536.1,80.1z M541.3,107.7h-11.6v-7.1c0-4.8,1-8.2,5.8-8.2c4.7,0,5.7,3.5,5.7,8.2L541.3,107.7L541.3,107.7z
	 M462-156c-113.8,0-206,92.2-206,206s92.2,206,206,206c113.8,0,206-92.2,206-206S575.8-156,462-156z M486.3-57.5H500v56.6
	c0,3,0.7,5,3.7,5c2.7,0,6.4-3.4,8.1-5.5v-56.1h13.7v73.9h-13.7V8.2c-6,7.1-11.7,9.2-15.9,9.2c-7.4,0-9.6-5.9-9.6-13.2L486.3-57.5
	L486.3-57.5z M454.8-58.1c11.1,0,19.8,8.3,19.8,19.9V-2c0,12.4-8.7,19.8-19.8,19.8c-13.3,0-20.1-6.8-20.1-19.8v-36.2
	C434.7-50.1,442.7-58.1,454.8-58.1z M399.1-83.8l10.7,40l9.9-40h15.7l-18,59.5v40.6h-15.5v-40.6l-18.4-59.5H399.1z M575.5,144.3
	c0,17.4-14.1,31.5-31.5,31.5H382c-17.4,0-31.5-14.1-31.5-31.5V64.7c0-17.4,14.1-31.5,31.5-31.5H544c17.4,0,31.5,14.1,31.5,31.5
	V144.3z" fill="#d92c28"/>
</svg>
